<?xml version="1.0" encoding="utf-8"?>
<!-- Generator: Adobe Illustrator 19.0.0, SVG Export Plug-In . SVG Version: 6.00 Build 0)  -->
<svg version="1.0" id="Ebene_1" xmlns="http://www.w3.org/2000/svg" xmlns:xlink="http://www.w3.org/1999/xlink" x="0px" y="0px"
	 viewBox="0 0 500 500" style="enable-background:new 0 0 500 500;" xml:space="preserve">
<g id="XMLID_1_">
	<path id="XMLID_5_" d="M301.555,370.01l-70.587-200.576L193.23,276.361C235.162,291.737,271.263,322.957,301.555,370.01z"/>
	<path id="XMLID_7_" d="M122.994,390.977c-10.483,9.785-24.111,14.676-40.885,14.676c-16.237,0-29.622-5.687-40.189-17.047
		c18.277,27.382,41.813,50.952,69.167,69.268c3.643-5.668,6.575-11.083,8.761-16.229c3.254-7.687,7.917-19.917,13.977-36.691
		l41.932-120.206c-15.375-4.651-30.521-6.989-45.427-6.989c-38.678,0-66.393,12.121-83.166,36.341
		c-2.795,4.193-4.193,7.687-4.193,10.483c0,4.193,2.096,6.29,6.289,6.29c3.736,0,7.23-3.494,10.483-10.483
		c7.928-11.183,18.99-16.773,33.196-16.773c14.207,0,25.389,4.663,33.547,13.977c8.146,9.325,12.23,21.436,12.23,36.342
		C138.718,368.852,133.477,381.192,122.994,390.977z"/>
	<path id="XMLID_12_" d="M24.801,340.658c0-19.098,9.086-36.57,27.256-52.415c18.17-15.834,44.029-23.761,77.574-23.761
		c17.232,0,34.245,2.566,51.018,7.687L251.935,66.7c6.52-19.568,13.737-33.076,21.666-40.534
		c11.395-10.128,26.431-15.653,45.091-16.607C296.866,3.335,273.823,0,250,0C111.929,0,0,111.929,0,250
		c0,42.091,10.402,81.752,28.776,116.553C26.129,358.785,24.801,350.155,24.801,340.658z"/>
	<path id="XMLID_13_" d="M458.644,387.755C484.776,348.256,500,300.908,500,250c0-111.795-73.385-206.441-174.608-238.42
		L458.644,387.755z"/>
</g>
<g id="XMLID_2_">
</g>
<g id="XMLID_3_">
</g>
<g id="XMLID_4_">
</g>
<g id="XMLID_6_">
</g>
<g id="XMLID_8_">
</g>
<g id="XMLID_9_">
</g>
<g id="XMLID_10_">
</g>
<g id="XMLID_11_">
</g>
<g id="XMLID_14_">
</g>
<g id="XMLID_15_">
</g>
<g id="XMLID_16_">
</g>
<g id="XMLID_17_">
</g>
<g id="XMLID_18_">
</g>
<g id="XMLID_19_">
</g>
<g id="XMLID_20_">
</g>
</svg>
